<svg width="32" height="30" viewBox="0 0 32 30" fill="none" xmlns="http://www.w3.org/2000/svg">
<path d="M16.0985 2.5C9.02922 2.5 3.30347 8.09375 3.30347 15C3.30347 20.5312 6.96603 25.2031 12.052 26.8594C12.6918 26.9687 12.9317 26.5938 12.9317 26.2656C12.9317 25.9688 12.9157 24.9844 12.9157 23.9375C9.70096 24.5156 8.86929 23.1719 8.61339 22.4688C8.46944 22.1094 7.84569 21 7.3019 20.7031C6.85408 20.4688 6.21433 19.8906 7.28591 19.875C8.29351 19.8594 9.01323 20.7812 9.25314 21.1562C10.4047 23.0469 12.244 22.5156 12.9797 22.1875C13.0916 21.375 13.4275 20.8281 13.7954 20.5156C10.9485 20.2031 7.97364 19.125 7.97364 14.3438C7.97364 12.9844 8.46944 11.8594 9.28512 10.9844C9.15717 10.6719 8.70935 9.39062 9.41307 7.67188C9.41307 7.67188 10.4847 7.34375 12.9317 8.95312C13.9553 8.67188 15.0429 8.53125 16.1305 8.53125C17.218 8.53125 18.3056 8.67188 19.3292 8.95312C21.7763 7.32812 22.8478 7.67188 22.8478 7.67188C23.5516 9.39062 23.1037 10.6719 22.9758 10.9844C23.7915 11.8594 24.2873 12.9688 24.2873 14.3438C24.2873 19.1406 21.2964 20.2031 18.4496 20.5156C18.9134 20.9062 19.3132 21.6562 19.3132 22.8281C19.3132 24.5 19.2972 25.8438 19.2972 26.2656C19.2972 26.5938 19.5371 26.9844 20.1769 26.8594C25.3851 25.1416 28.8921 20.3704 28.8935 15C28.8935 8.09375 23.1677 2.5 16.0985 2.5Z" fill="#CBF36E"/>
</svg>
