<svg width="32" height="30" viewBox="0 0 32 30" fill="none" xmlns="http://www.w3.org/2000/svg">
<path d="M24.054 22.9238H20.6435V17.7028C20.6435 16.4578 20.6177 14.8556 18.8663 14.8556C17.0882 14.8556 16.8165 16.2104 16.8165 17.6109V22.9238H13.406V12.1875H16.6822V13.6509H16.7263C17.1841 12.8071 18.2973 11.9166 19.9603 11.9166C23.4159 11.9166 24.055 14.1385 24.055 17.0306L24.054 22.9238ZM9.55413 10.7184C8.45632 10.7184 7.57443 9.85031 7.57443 8.7825C7.57443 7.71563 8.45728 6.84844 9.55413 6.84844C10.6481 6.84844 11.5348 7.71563 11.5348 8.7825C11.5348 9.85031 10.6471 10.7184 9.55413 10.7184ZM11.2642 22.9238H7.84408V12.1875H11.2642V22.9238ZM25.7602 3.75H6.13211C5.19264 3.75 4.43262 4.47563 4.43262 5.37094V24.6291C4.43262 25.5253 5.19264 26.25 6.13211 26.25H25.7574C26.6959 26.25 27.4636 25.5253 27.4636 24.6291V5.37094C27.4636 4.47563 26.6959 3.75 25.7574 3.75H25.7602Z" fill="#CBF36E"/>
</svg>
