<svg width="86" height="85" viewBox="0 0 86 85" fill="none" xmlns="http://www.w3.org/2000/svg">
<path d="M43 0C19.264 0 0 18.8599 0 42.0979C0 65.3359 19.264 84.1958 43 84.1958C66.736 84.1958 86 65.3359 86 42.0979C86 18.8599 66.779 0 43 0ZM59.125 43.5713L43.129 61.3787L41.237 63.4836C38.614 66.3884 36.464 65.6306 36.464 61.7155V45.0448H29.154C25.843 45.0448 24.94 43.0662 27.133 40.6245L43.129 22.8171L45.021 20.7122C47.644 17.8074 49.794 18.5652 49.794 22.4803V39.1511H57.104C60.415 39.1511 61.318 41.1297 59.125 43.5713Z" fill="#CBF36E"/>
</svg>
