<svg width="86" height="86" viewBox="0 0 86 86" fill="none" xmlns="http://www.w3.org/2000/svg">
<path d="M86 43C86 51.5046 83.4781 59.8182 78.7532 66.8895C74.0283 73.9608 67.3126 79.4722 59.4554 82.7268C51.5982 85.9814 42.9523 86.8329 34.6111 85.1738C26.2699 83.5146 18.6081 79.4192 12.5944 73.4056C6.58077 67.3919 2.48542 59.7301 0.826252 51.3889C-0.832912 43.0477 0.0186312 34.4018 3.2732 26.5446C6.52777 18.6874 12.0392 11.9717 19.1105 7.24681C26.1818 2.52191 34.4954 0 43 0C48.6469 0 54.2384 1.11223 59.4554 3.27318C64.6724 5.43413 69.4127 8.60149 73.4056 12.5944C77.3985 16.5873 80.5659 21.3276 82.7268 26.5446C84.8878 31.7616 86 37.3532 86 43ZM63.6228 55.8234C63.6128 55.5118 63.5465 55.2045 63.4273 54.9164C63.2512 54.5106 62.9922 54.1461 62.6669 53.8464L60.5813 51.7553L59.9784 51.1633L59.9675 51.1524L46.5956 37.7696L46.5793 37.7424L45.0313 36.1945L40.6808 40.545C39.8714 41.399 38.8411 42.0119 37.7044 42.3156C36.7525 42.5639 35.754 42.5728 34.7978 42.3416C33.8416 42.1103 32.9575 41.6462 32.2242 40.9904L32.1699 40.9361L32.0776 40.8546L31.1271 39.9041C30.1529 38.9777 29.5163 37.7523 29.3184 36.4226C29.1809 35.485 29.259 34.5284 29.5466 33.6255C29.8374 32.7149 30.3209 31.8776 30.9641 31.1705L31.0076 31.1162L31.0782 31.0456L34.299 27.8248L27.3306 20.7206L14.0183 34.2447L17.3912 37.4274L20.7206 40.7514C20.537 41.5707 20.4785 42.413 20.5468 43.2498C20.6252 44.1999 20.8242 45.1362 21.1388 46.0361C21.5029 47.0803 21.9897 48.0776 22.589 49.0071C23.2957 50.101 24.1208 51.1137 25.0494 52.0269L43.9233 70.9008C44.1711 71.1573 44.4712 71.3574 44.8032 71.4874C45.0887 71.5894 45.3911 71.6355 45.694 71.6232C46.0796 71.5935 46.441 71.4235 46.7096 71.1452L47.6384 70.2219C47.8444 69.99 47.9883 69.7097 48.0566 69.4072C48.1226 69.1135 48.1188 68.8085 48.0457 68.5165C47.9264 68.1051 47.6929 67.7359 47.3722 67.4519L45.0911 65.149C45.0203 65.0846 44.9635 65.0064 44.9241 64.9192C44.8847 64.832 44.8636 64.7377 44.8621 64.642C44.8606 64.5463 44.8786 64.4514 44.9152 64.363C44.9518 64.2745 45.0061 64.1946 45.0748 64.1279L45.531 63.7586C45.6203 63.6714 45.7402 63.6225 45.8651 63.6225C45.9899 63.6225 46.1098 63.6714 46.1991 63.7586L49.6751 67.1695C50.8157 68.3101 51.8278 68.4893 52.7113 67.7072L53.6346 66.7784C53.7751 66.636 53.8957 66.4753 53.9931 66.3005C54.1052 66.094 54.1614 65.8619 54.156 65.627C54.1452 65.3233 54.0653 65.0261 53.9225 64.758C53.7145 64.3711 53.4448 64.0207 53.1241 63.7206L49.7675 60.4346C49.6284 60.296 49.5499 60.108 49.5488 59.9116C49.5478 59.7153 49.6245 59.5265 49.762 59.3864L50.0988 59.0442C50.1634 58.9778 50.2408 58.9254 50.3264 58.8901C50.412 58.8547 50.504 58.8373 50.5966 58.8388C50.6891 58.8404 50.7804 58.8608 50.8648 58.8989C50.9492 58.937 51.0249 58.992 51.0873 59.0605L54.7263 62.7701C54.8512 62.9005 55.0196 63.0634 55.2368 63.2589C55.4448 63.4537 55.6882 63.6067 55.9538 63.7097C56.2259 63.8187 56.5218 63.8543 56.8119 63.8129C57.1769 63.735 57.5067 63.5405 57.7516 63.2589L58.9247 62.0858C59.0652 61.9433 59.1858 61.7826 59.2832 61.6078C59.3955 61.4014 59.4517 61.1692 59.4461 60.9343C59.4354 60.6372 59.3594 60.346 59.2235 60.0816C59.0538 59.7299 58.8199 59.413 58.5337 59.1474L55.025 55.7148C54.9382 55.6281 54.8694 55.525 54.8226 55.4115C54.7758 55.2981 54.752 55.1765 54.7525 55.0537C54.753 54.931 54.7778 54.8096 54.8255 54.6965C54.8733 54.5835 54.9429 54.481 55.0305 54.395L55.1608 54.2483C55.2341 54.1747 55.3217 54.117 55.4182 54.0785C55.5147 54.0401 55.618 54.0219 55.7218 54.0249C55.8257 54.028 55.9278 54.0523 56.0218 54.0963C56.1159 54.1403 56.1999 54.2031 56.2688 54.2809L59.218 57.2899C59.2995 57.3713 59.4353 57.5071 59.6417 57.6918C59.8567 57.887 60.1003 58.0481 60.364 58.1698C60.6478 58.3001 60.9594 58.358 61.2711 58.3381C61.659 58.2878 62.0147 58.0964 62.2704 57.8004L63.1992 56.8717C63.3014 56.7561 63.3889 56.6284 63.4599 56.4915C63.5701 56.2845 63.6244 56.0524 63.6174 55.818L63.6228 55.8234ZM71.6178 33.9948L58.3653 20.7423L53.4499 25.6577C51.7315 25.2982 49.9886 25.0676 48.2358 24.9679C47.2504 24.9119 46.262 24.9391 45.2812 25.0494C44.3263 25.1568 43.3896 25.3887 42.4949 25.7392C41.6131 26.0809 40.8122 26.6025 40.1431 27.2708L33.7667 33.6526L33.7559 33.6635C33.469 33.9741 33.2523 34.3427 33.1204 34.7443L33.115 34.7715C33.0001 35.1402 32.9704 35.5302 33.0281 35.9121C33.1234 36.4311 33.3868 36.9044 33.7776 37.2591L34.7009 38.1824C34.9861 38.4398 35.3318 38.621 35.7057 38.7092L35.7274 38.7147C36.0828 38.7925 36.4518 38.7832 36.8028 38.6875C37.28 38.5434 37.7083 38.2709 38.0412 37.9L43.7115 32.2296C44.0627 31.8797 44.5383 31.6833 45.0341 31.6833C45.5298 31.6833 46.0054 31.8797 46.3566 32.2296L62.6072 48.5074L62.8244 48.7246L63.2589 48.0729C63.8442 47.1654 64.32 46.1918 64.6765 45.1725C64.9849 44.2845 65.1802 43.3611 65.2577 42.4243C65.2921 41.9651 65.2921 41.5039 65.2577 41.0447C65.2365 40.7774 65.2735 40.5087 65.3663 40.2572L71.6178 33.9948ZM54.7154 60.4238L54.7372 60.4075C54.676 60.4508 54.6126 60.4907 54.5471 60.527C54.6017 60.4884 54.6578 60.4522 54.7154 60.4183V60.4238Z" fill="#CBF36E"/>
</svg>
