<svg width="86" height="86" viewBox="0 0 86 86" fill="none" xmlns="http://www.w3.org/2000/svg">
<path d="M43 0C19.2517 0 0 19.2517 0 43C0 66.7483 19.2517 86 43 86C66.7483 86 86 66.7483 86 43C86 19.2517 66.7483 0 43 0ZM41.5408 15.894H44.4593V24.4972H41.5408V15.894ZM29.6045 18.4765L34.5386 25.5207L32.1451 27.2004L27.211 20.1562L29.6045 18.4765ZM56.3955 18.4765L58.789 20.1562L53.8549 27.2004L51.4614 25.5207L56.3955 18.4765ZM43 26.8488C50.149 26.8488 55.9441 31.1881 55.9441 36.5437L48.5902 58.8153H37.4098L30.0559 36.5437C30.0559 31.188 35.8514 26.8488 43 26.8488ZM19.752 29.4313L27.8355 32.376L26.833 35.1213L18.7547 32.1765L19.752 29.4313ZM66.2479 29.4313L67.2453 32.1765L59.1618 35.1213L58.1644 32.376L66.2479 29.4313ZM27.4471 41.9922L28.203 44.8162L19.8938 47.0418L19.1379 44.2178L27.4471 41.9922ZM58.5529 41.9922L66.8621 44.2178L66.1062 47.0418L57.797 44.8162L58.5529 41.9922ZM37.2471 60.4425H48.753V64.311H37.2471V60.4425ZM37.2471 66.2374H48.753V70.1059H37.2471V66.2374Z" fill="#CBF36E"/>
</svg>
